<?xml version="1.0" encoding="utf-8"?>
<!-- Generator: Adobe Illustrator 22.1.0, SVG Export Plug-In . SVG Version: 6.00 Build 0)  -->
<svg version="1.1" id="Layer_1" xmlns="http://www.w3.org/2000/svg" xmlns:xlink="http://www.w3.org/1999/xlink" x="0px" y="0px"
	 viewBox="0 0 815.9 213.7" style="enable-background:new 0 0 815.9 213.7;" xml:space="preserve">
<style type="text/css">
	.st0{opacity:0.349;fill:#EDEDED;enable-background:new    ;}
	.st1{opacity:0.502;fill:#EDEDED;enable-background:new    ;}
</style>
<path class="st0" d="M749.4,189.8H66.5c-21.1,0-38.3-17.1-38.3-38.3V62.2c0-21.1,17.1-38.3,38.3-38.3h682.9
	c21.1,0,38.3,17.1,38.3,38.3v89.3C787.7,172.7,770.5,189.8,749.4,189.8z M781.3,62.2c0-17.6-14.3-31.9-31.9-31.9H66.5
	c-17.6,0-31.9,14.3-31.9,31.9v89.3c0,17.6,14.3,31.9,31.9,31.9h682.9c17.6,0,31.9-14.3,31.9-31.9V62.2z"/>
<path class="st1" d="M415.6,143.1h-8.3l6.4-15.9l-12.8-32.4h8.8l8.1,22l8.1-22h8.8L415.6,143.1z M383.6,129.2
	c-2.9,0-5.8-1.1-8.5-3.2v2.4h-8.6V80.1h8.6v17c2.7-2,5.6-3.1,8.5-3.1c9,0,15.2,7.2,15.2,17.6C398.8,122,392.6,129.2,383.6,129.2
	L383.6,129.2z M381.8,101.4c-2.3,0-4.7,1-6.7,3v14.4c2,2,4.4,3,6.7,3c4.8,0,8.2-4.2,8.2-10.2C390,105.6,386.7,101.4,381.8,101.4
	L381.8,101.4z M331.7,126.1c-2.6,2.1-5.6,3.2-8.5,3.2c-8.9,0-15.2-7.3-15.2-17.6c0-10.3,6.2-17.6,15.2-17.6c3,0,5.9,1.1,8.5,3.1v-17
	h8.7v48.3h-8.7V126.1z M331.7,104.5c-1.9-2-4.3-3-6.6-3c-4.9,0-8.3,4.2-8.3,10.2s3.4,10.2,8.3,10.2c2.3,0,4.7-1,6.6-3V104.5z
	 M280.5,114c0.5,5.1,4.6,8.6,10.2,8.6c3.1,0,6.5-1.1,10-3.2v7.2c-3.8,1.7-7.7,2.6-11.4,2.6c-10.1,0-17.3-7.4-17.3-17.9
	c0-10.1,7-17.3,16.6-17.3c8.8,0,14.8,6.9,14.8,16.8c0,0.9,0,2-0.1,3.2H280.5z M288.3,100.7c-4.2,0-7.4,3.1-7.8,7.7h14.6
	C294.9,103.8,292.2,100.7,288.3,100.7L288.3,100.7z M257.9,106v22.4h-8.6V94.8h8.6v3.4c2.4-2.7,5.4-4.2,8.3-4.2
	c0.9,0,1.9,0.1,2.8,0.3v7.7c-0.9-0.3-2-0.4-3-0.4C263.1,101.6,260.1,103.2,257.9,106z M219.6,114c0.5,5.1,4.6,8.6,10.2,8.6
	c3.1,0,6.5-1.1,10-3.2v7.2c-3.8,1.7-7.7,2.6-11.4,2.6c-10.1,0-17.3-7.4-17.3-17.9c0-10.1,7-17.3,16.6-17.3c8.8,0,14.8,6.9,14.8,16.8
	c0,0.9,0,2-0.1,3.2H219.6z M227.3,100.7c-4.2,0-7.4,3.1-7.8,7.7h14.6C233.9,103.8,231.2,100.7,227.3,100.7z M189.5,128.4l-6.9-22.8
	l-6.8,22.8h-7.7l-11.6-33.6h8.6l6.8,22.8l6.8-22.8h7.8l6.8,22.8l6.8-22.8h8.6l-11.5,33.6H189.5z M137,129.2
	c-10.1,0-17.3-7.3-17.3-17.6c0-10.3,7.2-17.6,17.3-17.6s17.3,7.2,17.3,17.6C154.3,121.9,147.1,129.2,137,129.2z M137,101.2
	c-5,0-8.5,4.2-8.5,10.4c0,6.2,3.5,10.4,8.5,10.4c5,0,8.5-4.2,8.5-10.4C145.5,105.5,142,101.2,137,101.2z M99.2,111.8h-7.7v16.6h-8.6
	V82.2h16.3c9.4,0,16.1,6.1,16.1,14.8S108.7,111.8,99.2,111.8L99.2,111.8z M98,89.2h-6.5v15.6H98c5,0,8.5-3.2,8.5-7.8
	C106.5,92.4,103,89.2,98,89.2z M737.4,115.1h-35.5c0.8,8.5,7,11,14.1,11c7.2,0,12.9-1.5,17.8-4v14.6c-4.9,2.7-11.4,4.7-20.1,4.7
	c-17.7,0-30-11.1-30-32.9c0-18.5,10.5-33.1,27.7-33.1c17.2,0,26.2,14.6,26.2,33.2C737.6,110.4,737.4,114.2,737.4,115.1z M711.3,90.2
	c-4.5,0-9.6,3.4-9.6,11.6h18.7C720.5,93.6,715.7,90.2,711.3,90.2z M654.3,141.4c-6.3,0-10.2-2.7-12.8-4.6l0,20.5l-18.1,3.9l0-84.6
	h16l0.9,4.5c2.5-2.3,7.1-5.7,14.2-5.7c12.7,0,24.7,11.5,24.7,32.6C679.2,131,667.3,141.4,654.3,141.4L654.3,141.4z M650.1,91.5
	c-4.2,0-6.8,1.5-8.7,3.6l0.1,26.9c1.8,1.9,4.3,3.4,8.5,3.4c6.7,0,11.2-7.3,11.2-17.1C661.3,98.9,656.8,91.5,650.1,91.5L650.1,91.5z
	 M597.2,76.6h18.2v63.5h-18.2V76.6z M597.2,56.3l18.2-3.9v14.8l-18.2,3.9V56.3z M577.8,97.1v43.1h-18.1V76.6h15.7l1.1,5.4
	c4.2-7.8,12.7-6.2,15.1-5.3v16.7C589.3,92.5,582.1,91.4,577.8,97.1L577.8,97.1z M538.9,117.8c0,10.7,11.4,7.4,13.8,6.4V139
	c-2.4,1.3-6.8,2.4-12.7,2.4c-10.8,0-18.8-7.9-18.8-18.6l0.1-58.1l17.7-3.8l0,15.7h13.8v15.5h-13.8L538.9,117.8z M516.4,120.9
	c0,13-10.4,20.5-25.5,20.5c-6.2,0-13.1-1.2-19.8-4.1V120c6.1,3.3,13.8,5.8,19.8,5.8c4,0,6.9-1.1,6.9-4.4c0-8.6-27.5-5.4-27.5-25.5
	c0-12.8,9.8-20.5,24.5-20.5c6,0,12,0.9,18,3.3v17.1c-5.5-3-12.5-4.7-18-4.7c-3.8,0-6.2,1.1-6.2,3.9
	C488.6,103.2,516.4,99.3,516.4,120.9z"/>
</svg>
